<svg width="71" height="40" viewBox="0 0 71 40" fill="none" xmlns="http://www.w3.org/2000/svg">
<path d="M14 27.6755C17.8755 20.1502 24.427 7.96164 28.4871 10.5276C33.5622 13.7352 21.1052 23.6044 27.103 27.6755C33.1009 31.7466 38.6373 6.82664 44.0815 10.5276C49.5258 14.2286 38.8219 23.9745 43.0665 27.6755C46.4622 30.6363 52.294 20.2394 57 12.2617" stroke="#6500C3" stroke-width="15.8161" stroke-linecap="round"/>
<path d="M37.8414 19.0113C37.8414 20.4303 37.4921 21.6995 36.9444 22.6033C36.3931 23.5129 35.6754 24.0051 34.9418 24.0051C34.2081 24.0051 33.4905 23.5129 32.9391 22.6033C32.3914 21.6995 32.0422 20.4303 32.0422 19.0113C32.0422 17.5922 32.3914 16.3231 32.9391 15.4193C33.4905 14.5096 34.2081 14.0175 34.9418 14.0175C35.6754 14.0175 36.3931 14.5096 36.9444 15.4193C37.4921 16.3231 37.8414 17.5922 37.8414 19.0113Z" fill="white" stroke="#0F172A" stroke-width="0.64436"/>
<path d="M37.8413 19.0113C37.8413 19.8953 37.6188 20.6803 37.2761 21.2338C36.9304 21.7923 36.4949 22.072 36.0693 22.072C35.6437 22.072 35.2081 21.7923 34.8624 21.2338C34.5197 20.6803 34.2973 19.8953 34.2973 19.0113C34.2973 18.1273 34.5197 17.3424 34.8624 16.7888C35.2081 16.2303 35.6437 15.9506 36.0693 15.9506C36.4949 15.9506 36.9304 16.2303 37.2761 16.7888C37.6188 17.3424 37.8413 18.1273 37.8413 19.0113Z" fill="#0F172A" stroke="#0F172A" stroke-width="0.64436"/>
<path d="M46.2181 19.0113C46.2181 20.4303 45.8688 21.6995 45.3211 22.6033C44.7698 23.5129 44.0521 24.0051 43.3185 24.0051C42.5848 24.0051 41.8672 23.5129 41.3159 22.6033C40.7681 21.6995 40.4189 20.4303 40.4189 19.0113C40.4189 17.5922 40.7681 16.3231 41.3159 15.4193C41.8672 14.5096 42.5848 14.0175 43.3185 14.0175C44.0521 14.0175 44.7698 14.5096 45.3211 15.4193C45.8688 16.3231 46.2181 17.5922 46.2181 19.0113Z" fill="white" stroke="#0F172A" stroke-width="0.64436"/>
<path d="M46.218 19.0113C46.218 19.8953 45.9955 20.6803 45.6528 21.2338C45.3071 21.7923 44.8716 22.072 44.446 22.072C44.0204 22.072 43.5848 21.7923 43.2391 21.2338C42.8964 20.6803 42.674 19.8953 42.674 19.0113C42.674 18.1273 42.8964 17.3424 43.2391 16.7888C43.5848 16.2303 44.0204 15.9506 44.446 15.9506C44.8716 15.9506 45.3071 16.2303 45.6528 16.7888C45.9955 17.3424 46.218 18.1273 46.218 19.0113Z" fill="#0F172A" stroke="#0F172A" stroke-width="0.64436"/>
</svg>
