<svg width="384" height="311" viewBox="0 0 384 311" fill="none" xmlns="http://www.w3.org/2000/svg">
<rect x="1" y="1" width="382" height="309" rx="23" fill="#F8FAFC" stroke="#CBD5E1" stroke-width="2" stroke-dasharray="6 6"/>
<path fill-rule="evenodd" clip-rule="evenodd" d="M197.947 129.333H186.667C174.885 129.333 165.333 138.885 165.333 150.667V161.973C165.333 173.755 174.885 183.307 186.667 183.307H197.947C209.729 183.307 219.28 173.755 219.28 161.973V150.667C219.28 138.885 209.729 129.333 197.947 129.333ZM181.653 140.32C184.599 140.32 186.987 142.708 186.987 145.653C186.987 148.599 184.599 150.987 181.653 150.987C178.708 150.987 176.32 148.599 176.32 145.653C176.32 142.708 178.708 140.32 181.653 140.32ZM201.36 177.653C208.91 174.834 213.923 167.632 213.947 159.573L213.867 154.987C213.867 153.893 213.653 151.84 213.653 151.84H209.307C199.244 151.871 190.055 157.563 185.547 166.56C182.275 163.635 178.043 162.012 173.653 162H170.427C170.189 168.199 173.556 173.977 179.067 176.827C181.037 177.876 183.235 178.426 185.467 178.427H196.587C198.211 178.45 199.826 178.188 201.36 177.653Z" fill="#E2E8F0"/>
<circle cx="336" cy="263" r="32" fill="#E2E8F0"/>
<path d="M327 263L345 263" stroke="#64748B" stroke-width="3" stroke-linecap="round"/>
<path d="M336 272L336 254" stroke="#64748B" stroke-width="3" stroke-linecap="round"/>
</svg>
