<svg width="16" height="16" viewBox="0 0 16 16" fill="none" xmlns="http://www.w3.org/2000/svg">
<path d="M3 10.0754C3.90129 8.3253 5.42489 5.49076 6.3691 6.08751C7.54936 6.83344 4.65236 9.12861 6.04721 10.0754C7.44206 11.0221 8.72961 5.22681 9.99571 6.0875C11.2618 6.9482 8.77253 9.21468 9.75966 10.0754C10.5494 10.7639 11.9056 8.34606 13 6.49079" stroke="#6500C3" stroke-width="3.67816" stroke-linecap="round"/>
<path d="M8.54444 8.06049C8.54444 8.3905 8.46321 8.68566 8.33583 8.89583C8.20762 9.10739 8.04072 9.22184 7.87011 9.22184C7.69949 9.22184 7.53259 9.10739 7.40438 8.89583C7.277 8.68566 7.19578 8.3905 7.19578 8.06049C7.19578 7.73048 7.277 7.43533 7.40438 7.22515C7.53259 7.01359 7.69949 6.89914 7.87011 6.89914C8.04072 6.89914 8.20762 7.01359 8.33583 7.22515C8.46321 7.43533 8.54444 7.73048 8.54444 8.06049Z" fill="white" stroke="#0F172A" stroke-width="0.149851"/>
<path d="M8.54437 8.0604C8.54437 8.26598 8.49264 8.44853 8.41295 8.57726C8.33254 8.70714 8.23126 8.77219 8.13228 8.77219C8.0333 8.77219 7.93202 8.70714 7.85161 8.57726C7.77192 8.44853 7.72019 8.26598 7.72019 8.0604C7.72019 7.85482 7.77192 7.67227 7.85161 7.54354C7.93202 7.41366 8.0333 7.34861 8.13228 7.34861C8.23126 7.34861 8.33254 7.41366 8.41295 7.54354C8.49264 7.67227 8.54437 7.85482 8.54437 8.0604Z" fill="#0F172A" stroke="#0F172A" stroke-width="0.149851"/>
<path d="M10.4927 8.06049C10.4927 8.3905 10.4115 8.68566 10.2841 8.89583C10.1559 9.10739 9.98896 9.22184 9.81835 9.22184C9.64773 9.22184 9.48084 9.10739 9.35262 8.89583C9.22524 8.68566 9.14402 8.3905 9.14402 8.06049C9.14402 7.73048 9.22524 7.43533 9.35262 7.22515C9.48084 7.01359 9.64773 6.89914 9.81835 6.89914C9.98896 6.89914 10.1559 7.01359 10.2841 7.22515C10.4115 7.43533 10.4927 7.73048 10.4927 8.06049Z" fill="white" stroke="#0F172A" stroke-width="0.149851"/>
<path d="M10.4926 8.0604C10.4926 8.26598 10.4409 8.44853 10.3612 8.57726C10.2808 8.70714 10.1795 8.77219 10.0805 8.77219C9.98154 8.77219 9.88026 8.70714 9.79986 8.57726C9.72017 8.44853 9.66843 8.26598 9.66843 8.0604C9.66843 7.85482 9.72017 7.67227 9.79986 7.54354C9.88026 7.41366 9.98154 7.34861 10.0805 7.34861C10.1795 7.34861 10.2808 7.41366 10.3612 7.54354C10.4409 7.67227 10.4926 7.85482 10.4926 8.0604Z" fill="#0F172A" stroke="#0F172A" stroke-width="0.149851"/>
</svg>
